<mxfile host="app.diagrams.net" modified="2024-03-07T17:24:21.376Z" agent="Mozilla/5.0 (Windows NT 10.0; Win64; x64; rv:123.0) Gecko/20100101 Firefox/123.0" etag="1PYAB8NZjRXGVUM411Us" version="24.0.2" type="device">
  <diagram name="Pagina-1" id="Ov62YIfv1MleKtIoFw98">
    <mxGraphModel dx="1221" dy="761" grid="1" gridSize="10" guides="1" tooltips="1" connect="1" arrows="1" fold="1" page="1" pageScale="1" pageWidth="1169" pageHeight="827" math="0" shadow="0">
      <root>
        <mxCell id="0" />
        <mxCell id="1" parent="0" />
        <mxCell id="eK21wRFp7lSqYpsJswhM-6" value="&lt;div&gt;Capo&lt;/div&gt;&lt;div&gt;Servizio&lt;/div&gt;&lt;div&gt;&lt;br&gt;&lt;/div&gt;" style="shape=umlActor;verticalLabelPosition=bottom;verticalAlign=top;html=1;" vertex="1" parent="1">
          <mxGeometry x="20" y="320" width="30" height="60" as="geometry" />
        </mxCell>
        <mxCell id="eK21wRFp7lSqYpsJswhM-7" value="&lt;div&gt;Operatore&amp;nbsp;&lt;/div&gt;&lt;div&gt;Ambulanza&lt;/div&gt;&lt;div&gt;&lt;br&gt;&lt;/div&gt;" style="shape=umlActor;verticalLabelPosition=bottom;verticalAlign=top;html=1;" vertex="1" parent="1">
          <mxGeometry x="20" y="100" width="30" height="60" as="geometry" />
        </mxCell>
        <mxCell id="eK21wRFp7lSqYpsJswhM-8" value="&lt;div&gt;Operatore &lt;br&gt;&lt;/div&gt;&lt;div&gt;SOREU&lt;/div&gt;&lt;div&gt;118&lt;/div&gt;&lt;div&gt;&lt;br&gt;&lt;/div&gt;" style="shape=umlActor;verticalLabelPosition=bottom;verticalAlign=top;html=1;" vertex="1" parent="1">
          <mxGeometry x="1110" y="320" width="30" height="60" as="geometry" />
        </mxCell>
        <mxCell id="eK21wRFp7lSqYpsJswhM-9" value="&lt;div&gt;Operatore &lt;br&gt;&lt;/div&gt;&lt;div&gt;MSA&lt;/div&gt;" style="shape=umlActor;verticalLabelPosition=bottom;verticalAlign=top;html=1;" vertex="1" parent="1">
          <mxGeometry x="20" y="670" width="30" height="60" as="geometry" />
        </mxCell>
        <mxCell id="eK21wRFp7lSqYpsJswhM-14" value="" style="rounded=0;whiteSpace=wrap;html=1;fillColor=none;" vertex="1" parent="1">
          <mxGeometry x="70" y="10" width="410" height="800" as="geometry" />
        </mxCell>
        <mxCell id="eK21wRFp7lSqYpsJswhM-15" value="" style="rounded=0;whiteSpace=wrap;html=1;fillColor=none;" vertex="1" parent="1">
          <mxGeometry x="490" y="10" width="250" height="800" as="geometry" />
        </mxCell>
        <mxCell id="eK21wRFp7lSqYpsJswhM-16" value="" style="rounded=0;whiteSpace=wrap;html=1;fillColor=none;" vertex="1" parent="1">
          <mxGeometry x="750" y="10" width="350" height="800" as="geometry" />
        </mxCell>
        <mxCell id="eK21wRFp7lSqYpsJswhM-17" value="&lt;div&gt;Aggiornamento&lt;/div&gt;&lt;div&gt;stati&lt;br&gt;&lt;/div&gt;" style="ellipse;whiteSpace=wrap;html=1;" vertex="1" parent="1">
          <mxGeometry x="515" y="30" width="110" height="50" as="geometry" />
        </mxCell>
        <mxCell id="eK21wRFp7lSqYpsJswhM-18" value="&lt;div&gt;Memorizzazione&lt;/div&gt;&lt;div&gt;dati&lt;/div&gt;" style="ellipse;whiteSpace=wrap;html=1;" vertex="1" parent="1">
          <mxGeometry x="520" y="389" width="100" height="60" as="geometry" />
        </mxCell>
        <mxCell id="eK21wRFp7lSqYpsJswhM-19" value="&lt;div&gt;Ricerca AAT&lt;/div&gt;&lt;div&gt;piÃ¹ vicina&lt;br&gt;&lt;/div&gt;" style="ellipse;whiteSpace=wrap;html=1;" vertex="1" parent="1">
          <mxGeometry x="610" y="480" width="110" height="50" as="geometry" />
        </mxCell>
        <mxCell id="eK21wRFp7lSqYpsJswhM-20" value="&lt;div&gt;Ricerca&lt;/div&gt;&lt;div&gt;ospedali&lt;/div&gt;&lt;div&gt;candidati&lt;/div&gt;" style="ellipse;whiteSpace=wrap;html=1;" vertex="1" parent="1">
          <mxGeometry x="610" y="109" width="120" height="56" as="geometry" />
        </mxCell>
        <mxCell id="eK21wRFp7lSqYpsJswhM-21" value="&lt;div&gt;Scelta ospedale&lt;/div&gt;&lt;div&gt;di destinazione&lt;br&gt;&lt;/div&gt;" style="ellipse;whiteSpace=wrap;html=1;" vertex="1" parent="1">
          <mxGeometry x="780" y="210" width="110" height="50" as="geometry" />
        </mxCell>
        <mxCell id="eK21wRFp7lSqYpsJswhM-22" value="&lt;div&gt;Richiesta dati&lt;/div&gt;&lt;div&gt;aggiuntivi&lt;/div&gt;&lt;div&gt;emergenza&lt;/div&gt;" style="ellipse;whiteSpace=wrap;html=1;" vertex="1" parent="1">
          <mxGeometry x="805" y="570" width="120" height="70" as="geometry" />
        </mxCell>
        <mxCell id="eK21wRFp7lSqYpsJswhM-23" value="&lt;div&gt;Visualizzaione&lt;/div&gt;&lt;div&gt;stato mezzi&lt;/div&gt;&lt;div&gt;SOREU&lt;br&gt;&lt;/div&gt;" style="ellipse;whiteSpace=wrap;html=1;" vertex="1" parent="1">
          <mxGeometry x="860" y="25" width="120" height="60" as="geometry" />
        </mxCell>
        <mxCell id="eK21wRFp7lSqYpsJswhM-24" value="&lt;div&gt;Comunicazione&lt;/div&gt;&lt;div&gt;con capo&lt;/div&gt;&lt;div&gt;servizio&lt;br&gt;&lt;/div&gt;" style="ellipse;whiteSpace=wrap;html=1;" vertex="1" parent="1">
          <mxGeometry x="940" y="710" width="120" height="60" as="geometry" />
        </mxCell>
        <mxCell id="eK21wRFp7lSqYpsJswhM-25" value="&lt;div&gt;Invio allarme&lt;/div&gt;&lt;div&gt;emergenza&lt;br&gt;&lt;/div&gt;" style="ellipse;whiteSpace=wrap;html=1;" vertex="1" parent="1">
          <mxGeometry x="965" y="510" width="110" height="50" as="geometry" />
        </mxCell>
        <mxCell id="eK21wRFp7lSqYpsJswhM-26" value="&lt;div&gt;Compilazione&lt;/div&gt;&lt;div&gt;modulo &lt;br&gt;&lt;/div&gt;&lt;div&gt;emergenza&lt;br&gt;&lt;/div&gt;" style="ellipse;whiteSpace=wrap;html=1;" vertex="1" parent="1">
          <mxGeometry x="805" y="455" width="120" height="60" as="geometry" />
        </mxCell>
        <mxCell id="eK21wRFp7lSqYpsJswhM-27" value="Logout" style="ellipse;whiteSpace=wrap;html=1;" vertex="1" parent="1">
          <mxGeometry x="965" y="399" width="70" height="40" as="geometry" />
        </mxCell>
        <mxCell id="eK21wRFp7lSqYpsJswhM-28" value="&lt;div&gt;Login&lt;/div&gt;" style="ellipse;whiteSpace=wrap;html=1;" vertex="1" parent="1">
          <mxGeometry x="860" y="330" width="70" height="40" as="geometry" />
        </mxCell>
        <mxCell id="eK21wRFp7lSqYpsJswhM-29" value="&lt;div&gt;Visualizzazione&lt;/div&gt;&lt;div&gt;report fine &lt;br&gt;&lt;/div&gt;&lt;div&gt;emergenza&lt;/div&gt;" style="ellipse;whiteSpace=wrap;html=1;" vertex="1" parent="1">
          <mxGeometry x="950" y="220" width="130" height="70" as="geometry" />
        </mxCell>
        <mxCell id="eK21wRFp7lSqYpsJswhM-30" value="Attivazione MSA" style="ellipse;whiteSpace=wrap;html=1;" vertex="1" parent="1">
          <mxGeometry x="940" y="630" width="110" height="50" as="geometry" />
        </mxCell>
        <mxCell id="eK21wRFp7lSqYpsJswhM-31" value="&lt;div&gt;Comunicazione&lt;/div&gt;&lt;div&gt;stati&lt;/div&gt;" style="ellipse;whiteSpace=wrap;html=1;" vertex="1" parent="1">
          <mxGeometry x="100" y="30" width="110" height="50" as="geometry" />
        </mxCell>
        <mxCell id="eK21wRFp7lSqYpsJswhM-32" value="&lt;div&gt;Visualizzazione&lt;/div&gt;&lt;div&gt;ospedale di&lt;/div&gt;&lt;div&gt;destinazione&lt;br&gt;&lt;/div&gt;" style="ellipse;whiteSpace=wrap;html=1;" vertex="1" parent="1">
          <mxGeometry x="100" y="105" width="120" height="60" as="geometry" />
        </mxCell>
        <mxCell id="eK21wRFp7lSqYpsJswhM-36" value="Richiesta MSA" style="ellipse;whiteSpace=wrap;html=1;" vertex="1" parent="1">
          <mxGeometry x="310" y="480" width="110" height="50" as="geometry" />
        </mxCell>
        <mxCell id="eK21wRFp7lSqYpsJswhM-37" value="&lt;div&gt;Comunicazione&lt;/div&gt;&lt;div&gt;dati paziente&lt;br&gt;&lt;/div&gt;" style="ellipse;whiteSpace=wrap;html=1;" vertex="1" parent="1">
          <mxGeometry x="320" y="620" width="110" height="50" as="geometry" />
        </mxCell>
        <mxCell id="eK21wRFp7lSqYpsJswhM-38" value="&lt;div&gt;Comunicazione&lt;/div&gt;&lt;div&gt;con centrale&lt;br&gt;&lt;/div&gt;" style="ellipse;whiteSpace=wrap;html=1;" vertex="1" parent="1">
          <mxGeometry x="230" y="394" width="110" height="50" as="geometry" />
        </mxCell>
        <mxCell id="eK21wRFp7lSqYpsJswhM-39" value="&lt;div&gt;Accetazione chiamate&lt;/div&gt;&lt;div&gt;d&#39;emergenza&lt;br&gt;&lt;/div&gt;" style="ellipse;whiteSpace=wrap;html=1;" vertex="1" parent="1">
          <mxGeometry x="100" y="550" width="110" height="50" as="geometry" />
        </mxCell>
        <mxCell id="eK21wRFp7lSqYpsJswhM-40" value="&lt;div&gt;Comunicazione&lt;/div&gt;&lt;div&gt;dati turno&lt;br&gt;&lt;/div&gt;" style="ellipse;whiteSpace=wrap;html=1;" vertex="1" parent="1">
          <mxGeometry x="230" y="310" width="110" height="50" as="geometry" />
        </mxCell>
        <mxCell id="eK21wRFp7lSqYpsJswhM-41" value="Logout" style="ellipse;whiteSpace=wrap;html=1;" vertex="1" parent="1">
          <mxGeometry x="80" y="310" width="80" height="30" as="geometry" />
        </mxCell>
        <mxCell id="eK21wRFp7lSqYpsJswhM-42" value="&lt;div&gt;Login&lt;br&gt;&lt;/div&gt;" style="ellipse;whiteSpace=wrap;html=1;" vertex="1" parent="1">
          <mxGeometry x="100" y="470" width="80" height="30" as="geometry" />
        </mxCell>
        <mxCell id="eK21wRFp7lSqYpsJswhM-43" value="&lt;div&gt;Compilazione&lt;/div&gt;&lt;div&gt;report fine &lt;br&gt;&lt;/div&gt;&lt;div&gt;emergenza&lt;br&gt;&lt;/div&gt;" style="ellipse;whiteSpace=wrap;html=1;" vertex="1" parent="1">
          <mxGeometry x="230" y="230" width="110" height="50" as="geometry" />
        </mxCell>
        <mxCell id="eK21wRFp7lSqYpsJswhM-44" value="&lt;div&gt;Visualizzazione &lt;br&gt;&lt;/div&gt;&lt;div&gt;arrivo MSA&lt;br&gt;&lt;/div&gt;" style="ellipse;whiteSpace=wrap;html=1;" vertex="1" parent="1">
          <mxGeometry x="310" y="550" width="110" height="50" as="geometry" />
        </mxCell>
        <mxCell id="eK21wRFp7lSqYpsJswhM-45" value="&lt;div&gt;Richiesta MSB&lt;/div&gt;&lt;div&gt;aggiuntivo&lt;/div&gt;" style="ellipse;whiteSpace=wrap;html=1;" vertex="1" parent="1">
          <mxGeometry x="120" y="690" width="110" height="50" as="geometry" />
        </mxCell>
        <mxCell id="eK21wRFp7lSqYpsJswhM-47" value="" style="endArrow=open;endFill=1;endSize=12;html=1;rounded=0;entryX=0;entryY=0.5;entryDx=0;entryDy=0;" edge="1" parent="1" target="eK21wRFp7lSqYpsJswhM-42">
          <mxGeometry width="160" relative="1" as="geometry">
            <mxPoint x="30" y="430" as="sourcePoint" />
            <mxPoint x="350" y="420" as="targetPoint" />
            <Array as="points">
              <mxPoint x="30" y="485" />
            </Array>
          </mxGeometry>
        </mxCell>
        <mxCell id="eK21wRFp7lSqYpsJswhM-50" value="" style="endArrow=none;html=1;rounded=0;" edge="1" parent="1">
          <mxGeometry width="50" height="50" relative="1" as="geometry">
            <mxPoint x="30" y="650" as="sourcePoint" />
            <mxPoint x="30" y="480" as="targetPoint" />
          </mxGeometry>
        </mxCell>
        <mxCell id="eK21wRFp7lSqYpsJswhM-51" value="" style="endArrow=open;endFill=1;endSize=12;html=1;rounded=0;entryX=0.013;entryY=0.389;entryDx=0;entryDy=0;entryPerimeter=0;" edge="1" parent="1" target="eK21wRFp7lSqYpsJswhM-31">
          <mxGeometry width="160" relative="1" as="geometry">
            <mxPoint x="35" y="95" as="sourcePoint" />
            <mxPoint x="90" y="50" as="targetPoint" />
            <Array as="points">
              <mxPoint x="35" y="50" />
            </Array>
          </mxGeometry>
        </mxCell>
        <mxCell id="eK21wRFp7lSqYpsJswhM-52" value="" style="endArrow=open;endFill=1;endSize=12;html=1;rounded=0;entryX=0.021;entryY=0.6;entryDx=0;entryDy=0;entryPerimeter=0;" edge="1" parent="1" target="eK21wRFp7lSqYpsJswhM-32">
          <mxGeometry width="160" relative="1" as="geometry">
            <mxPoint x="39" y="139.5" as="sourcePoint" />
            <mxPoint x="100" y="140" as="targetPoint" />
            <Array as="points">
              <mxPoint x="39" y="140.5" />
            </Array>
          </mxGeometry>
        </mxCell>
        <mxCell id="eK21wRFp7lSqYpsJswhM-60" value="&lt;font style=&quot;font-size: 9px;&quot;&gt;&amp;lt;&amp;lt;include&amp;gt;&amp;gt;&lt;/font&gt;" style="endArrow=open;endSize=12;dashed=1;html=1;rounded=0;exitX=0.174;exitY=0.861;exitDx=0;exitDy=0;exitPerimeter=0;entryX=0.014;entryY=0.408;entryDx=0;entryDy=0;entryPerimeter=0;" edge="1" parent="1" target="eK21wRFp7lSqYpsJswhM-36">
          <mxGeometry x="-0.3103" y="30" width="160" relative="1" as="geometry">
            <mxPoint x="290" y="444.00000000000006" as="sourcePoint" />
            <mxPoint x="350.9699999999999" y="587.8000000000001" as="targetPoint" />
            <Array as="points">
              <mxPoint x="291" y="500" />
            </Array>
            <mxPoint as="offset" />
          </mxGeometry>
        </mxCell>
        <mxCell id="eK21wRFp7lSqYpsJswhM-61" value="&lt;font style=&quot;font-size: 9px;&quot;&gt;&amp;lt;&amp;lt;include&amp;gt;&amp;gt;&lt;/font&gt;" style="endArrow=open;endSize=12;dashed=1;html=1;rounded=0;exitX=0.411;exitY=0.966;exitDx=0;exitDy=0;exitPerimeter=0;entryX=0.008;entryY=0.617;entryDx=0;entryDy=0;entryPerimeter=0;" edge="1" parent="1" source="eK21wRFp7lSqYpsJswhM-38" target="eK21wRFp7lSqYpsJswhM-44">
          <mxGeometry x="0.1422" y="34" width="160" relative="1" as="geometry">
            <mxPoint x="274" y="477.00000000000006" as="sourcePoint" />
            <mxPoint x="296" y="533" as="targetPoint" />
            <Array as="points">
              <mxPoint x="277" y="580" />
            </Array>
            <mxPoint as="offset" />
          </mxGeometry>
        </mxCell>
        <mxCell id="eK21wRFp7lSqYpsJswhM-62" value="&lt;font style=&quot;font-size: 9px;&quot;&gt;&amp;lt;&amp;lt;include&amp;gt;&amp;gt;&lt;/font&gt;" style="endArrow=open;endSize=12;dashed=1;html=1;rounded=0;exitX=0.265;exitY=0.96;exitDx=0;exitDy=0;exitPerimeter=0;entryX=0.029;entryY=0.608;entryDx=0;entryDy=0;entryPerimeter=0;" edge="1" parent="1" source="eK21wRFp7lSqYpsJswhM-38" target="eK21wRFp7lSqYpsJswhM-37">
          <mxGeometry x="0.7693" y="15" width="160" relative="1" as="geometry">
            <mxPoint x="257" y="461" as="sourcePoint" />
            <mxPoint x="293" y="600" as="targetPoint" />
            <Array as="points">
              <mxPoint x="260" y="650" />
            </Array>
            <mxPoint as="offset" />
          </mxGeometry>
        </mxCell>
        <mxCell id="eK21wRFp7lSqYpsJswhM-63" value="&amp;lt;&amp;lt;&lt;font style=&quot;font-size: 9px;&quot;&gt;include&lt;/font&gt;&amp;gt;&amp;gt;" style="endArrow=open;endSize=12;dashed=1;html=1;rounded=0;exitX=0.5;exitY=1;exitDx=0;exitDy=0;entryX=0.383;entryY=-0.054;entryDx=0;entryDy=0;entryPerimeter=0;" edge="1" parent="1" source="eK21wRFp7lSqYpsJswhM-42" target="eK21wRFp7lSqYpsJswhM-39">
          <mxGeometry x="-0.0625" y="-30" width="160" relative="1" as="geometry">
            <mxPoint x="75" y="640" as="sourcePoint" />
            <mxPoint x="235" y="640" as="targetPoint" />
            <mxPoint as="offset" />
          </mxGeometry>
        </mxCell>
        <mxCell id="eK21wRFp7lSqYpsJswhM-64" value="&lt;font style=&quot;font-size: 9px;&quot;&gt;&amp;lt;&amp;lt;include&amp;gt;&amp;gt;&lt;/font&gt;" style="endArrow=open;endSize=12;dashed=1;html=1;rounded=0;exitX=0.575;exitY=-0.014;exitDx=0;exitDy=0;exitPerimeter=0;entryX=0.01;entryY=0.734;entryDx=0;entryDy=0;entryPerimeter=0;" edge="1" parent="1" source="eK21wRFp7lSqYpsJswhM-42" target="eK21wRFp7lSqYpsJswhM-40">
          <mxGeometry width="160" relative="1" as="geometry">
            <mxPoint x="200" y="510" as="sourcePoint" />
            <mxPoint x="360" y="510" as="targetPoint" />
          </mxGeometry>
        </mxCell>
        <mxCell id="eK21wRFp7lSqYpsJswhM-65" value="&lt;font style=&quot;font-size: 9px;&quot;&gt;&amp;lt;&amp;lt;include&amp;gt;&amp;gt;&lt;/font&gt;" style="endArrow=open;endSize=12;dashed=1;html=1;rounded=0;exitX=0.771;exitY=0.049;exitDx=0;exitDy=0;exitPerimeter=0;entryX=0.099;entryY=0.86;entryDx=0;entryDy=0;entryPerimeter=0;" edge="1" parent="1" source="eK21wRFp7lSqYpsJswhM-39" target="eK21wRFp7lSqYpsJswhM-38">
          <mxGeometry x="-0.7149" y="23" width="160" relative="1" as="geometry">
            <mxPoint x="170" y="644.71" as="sourcePoint" />
            <mxPoint x="330" y="644.71" as="targetPoint" />
            <Array as="points">
              <mxPoint x="240" y="554" />
            </Array>
            <mxPoint as="offset" />
          </mxGeometry>
        </mxCell>
        <mxCell id="eK21wRFp7lSqYpsJswhM-66" value="&lt;font style=&quot;font-size: 9px;&quot;&gt;&amp;lt;&amp;lt;include&amp;gt;&amp;gt;&lt;/font&gt;" style="endArrow=open;endSize=12;dashed=1;html=1;rounded=0;exitX=0.377;exitY=0.031;exitDx=0;exitDy=0;exitPerimeter=0;entryX=0.553;entryY=1.031;entryDx=0;entryDy=0;entryPerimeter=0;" edge="1" parent="1" source="eK21wRFp7lSqYpsJswhM-45" target="eK21wRFp7lSqYpsJswhM-39">
          <mxGeometry width="160" relative="1" as="geometry">
            <mxPoint x="227.81000000000003" y="712.9999999999999" as="sourcePoint" />
            <mxPoint x="219.99999999999997" y="626.9999999999999" as="targetPoint" />
          </mxGeometry>
        </mxCell>
        <mxCell id="eK21wRFp7lSqYpsJswhM-67" value="" style="endArrow=open;endFill=1;endSize=12;html=1;rounded=0;entryX=0.018;entryY=0.403;entryDx=0;entryDy=0;entryPerimeter=0;" edge="1" parent="1" target="eK21wRFp7lSqYpsJswhM-45">
          <mxGeometry width="160" relative="1" as="geometry">
            <mxPoint x="52" y="709" as="sourcePoint" />
            <mxPoint x="120" y="755" as="targetPoint" />
            <Array as="points" />
          </mxGeometry>
        </mxCell>
        <mxCell id="eK21wRFp7lSqYpsJswhM-68" value="&lt;font style=&quot;font-size: 9px;&quot;&gt;&amp;lt;&amp;lt;include&amp;gt;&amp;gt;&lt;/font&gt;" style="endArrow=open;endSize=12;dashed=1;html=1;rounded=0;exitX=0.204;exitY=0.043;exitDx=0;exitDy=0;exitPerimeter=0;entryX=0;entryY=0.5;entryDx=0;entryDy=0;" edge="1" parent="1" source="eK21wRFp7lSqYpsJswhM-42" target="eK21wRFp7lSqYpsJswhM-43">
          <mxGeometry width="160" relative="1" as="geometry">
            <mxPoint x="200" y="400" as="sourcePoint" />
            <mxPoint x="360" y="400" as="targetPoint" />
          </mxGeometry>
        </mxCell>
        <mxCell id="eK21wRFp7lSqYpsJswhM-70" value="&lt;font style=&quot;font-size: 9px;&quot;&gt;&amp;lt;&amp;lt;extends&amp;gt;&amp;gt;&lt;/font&gt;" style="endArrow=open;endSize=12;dashed=1;html=1;rounded=0;exitX=0.054;exitY=0.233;exitDx=0;exitDy=0;exitPerimeter=0;entryX=0.332;entryY=1.11;entryDx=0;entryDy=0;entryPerimeter=0;" edge="1" parent="1" source="eK21wRFp7lSqYpsJswhM-42" target="eK21wRFp7lSqYpsJswhM-41">
          <mxGeometry width="160" relative="1" as="geometry">
            <mxPoint x="110" y="210" as="sourcePoint" />
            <mxPoint x="270" y="210" as="targetPoint" />
          </mxGeometry>
        </mxCell>
        <mxCell id="eK21wRFp7lSqYpsJswhM-71" value="&lt;font style=&quot;font-size: 9px;&quot;&gt;&amp;lt;&amp;lt;include&amp;gt;&amp;gt;&lt;/font&gt;" style="endArrow=open;endSize=12;dashed=1;html=1;rounded=0;exitX=1;exitY=0.5;exitDx=0;exitDy=0;entryX=0;entryY=0.5;entryDx=0;entryDy=0;" edge="1" parent="1" source="eK21wRFp7lSqYpsJswhM-31" target="eK21wRFp7lSqYpsJswhM-17">
          <mxGeometry width="160" relative="1" as="geometry">
            <mxPoint x="240" y="54.71000000000001" as="sourcePoint" />
            <mxPoint x="400" y="54.71000000000001" as="targetPoint" />
          </mxGeometry>
        </mxCell>
        <mxCell id="eK21wRFp7lSqYpsJswhM-72" value="&lt;font style=&quot;font-size: 9px;&quot;&gt;&amp;lt;&amp;lt;include&amp;gt;&amp;gt;&lt;/font&gt;" style="endArrow=open;endSize=12;dashed=1;html=1;rounded=0;exitX=1;exitY=0.5;exitDx=0;exitDy=0;entryX=-0.017;entryY=0.411;entryDx=0;entryDy=0;entryPerimeter=0;" edge="1" parent="1" source="eK21wRFp7lSqYpsJswhM-32" target="eK21wRFp7lSqYpsJswhM-20">
          <mxGeometry width="160" relative="1" as="geometry">
            <mxPoint x="230" y="134.70999999999998" as="sourcePoint" />
            <mxPoint x="535" y="134.70999999999998" as="targetPoint" />
          </mxGeometry>
        </mxCell>
        <mxCell id="eK21wRFp7lSqYpsJswhM-73" value="&lt;font style=&quot;font-size: 9px;&quot;&gt;&amp;lt;&amp;lt;include&amp;gt;&amp;gt;&lt;/font&gt;" style="endArrow=open;endSize=12;dashed=1;html=1;rounded=0;exitX=1.034;exitY=0.506;exitDx=0;exitDy=0;entryX=0.22;entryY=0.057;entryDx=0;entryDy=0;entryPerimeter=0;exitPerimeter=0;" edge="1" parent="1" source="eK21wRFp7lSqYpsJswhM-43" target="eK21wRFp7lSqYpsJswhM-18">
          <mxGeometry width="160" relative="1" as="geometry">
            <mxPoint x="342" y="250" as="sourcePoint" />
            <mxPoint x="640" y="252" as="targetPoint" />
          </mxGeometry>
        </mxCell>
        <mxCell id="eK21wRFp7lSqYpsJswhM-74" value="&lt;font style=&quot;font-size: 9px;&quot;&gt;&amp;lt;&amp;lt;include&amp;gt;&amp;gt;&lt;/font&gt;" style="endArrow=open;endSize=12;dashed=1;html=1;rounded=0;exitX=0.945;exitY=0.231;exitDx=0;exitDy=0;entryX=0.043;entryY=0.276;entryDx=0;entryDy=0;entryPerimeter=0;exitPerimeter=0;" edge="1" parent="1" source="eK21wRFp7lSqYpsJswhM-40" target="eK21wRFp7lSqYpsJswhM-18">
          <mxGeometry width="160" relative="1" as="geometry">
            <mxPoint x="360" y="340" as="sourcePoint" />
            <mxPoint x="558" y="477" as="targetPoint" />
          </mxGeometry>
        </mxCell>
        <mxCell id="eK21wRFp7lSqYpsJswhM-75" value="&lt;font style=&quot;font-size: 9px;&quot;&gt;&amp;lt;&amp;lt;include&amp;gt;&amp;gt;&lt;/font&gt;" style="endArrow=open;endSize=12;dashed=1;html=1;rounded=0;exitX=0.914;exitY=0.237;exitDx=0;exitDy=0;entryX=0.049;entryY=0.724;entryDx=0;entryDy=0;entryPerimeter=0;exitPerimeter=0;" edge="1" parent="1" source="eK21wRFp7lSqYpsJswhM-36" target="eK21wRFp7lSqYpsJswhM-18">
          <mxGeometry x="-0.3664" y="15" width="160" relative="1" as="geometry">
            <mxPoint x="450" y="516" as="sourcePoint" />
            <mxPoint x="640" y="600" as="targetPoint" />
            <mxPoint as="offset" />
          </mxGeometry>
        </mxCell>
        <mxCell id="eK21wRFp7lSqYpsJswhM-76" value="&lt;font style=&quot;font-size: 9px;&quot;&gt;&amp;lt;&amp;lt;include&amp;gt;&amp;gt;&lt;/font&gt;" style="endArrow=open;endSize=12;dashed=1;html=1;rounded=0;exitX=0.891;exitY=0.18;exitDx=0;exitDy=0;entryX=0.203;entryY=0.886;entryDx=0;entryDy=0;entryPerimeter=0;exitPerimeter=0;" edge="1" parent="1" source="eK21wRFp7lSqYpsJswhM-37" target="eK21wRFp7lSqYpsJswhM-18">
          <mxGeometry x="-0.7756" y="-22" width="160" relative="1" as="geometry">
            <mxPoint x="450" y="540" as="sourcePoint" />
            <mxPoint x="564" y="480" as="targetPoint" />
            <mxPoint as="offset" />
          </mxGeometry>
        </mxCell>
        <mxCell id="eK21wRFp7lSqYpsJswhM-78" value="&lt;font style=&quot;font-size: 9px;&quot;&gt;&amp;lt;&amp;lt;include&amp;gt;&amp;gt;&lt;/font&gt;" style="endArrow=open;endSize=12;dashed=1;html=1;rounded=0;exitX=1;exitY=0.5;exitDx=0;exitDy=0;entryX=0.574;entryY=1.019;entryDx=0;entryDy=0;entryPerimeter=0;" edge="1" parent="1" source="eK21wRFp7lSqYpsJswhM-45" target="eK21wRFp7lSqYpsJswhM-18">
          <mxGeometry x="-0.3156" y="14" width="160" relative="1" as="geometry">
            <mxPoint x="285" y="714.71" as="sourcePoint" />
            <mxPoint x="445" y="714.71" as="targetPoint" />
            <Array as="points">
              <mxPoint x="581" y="713" />
            </Array>
            <mxPoint as="offset" />
          </mxGeometry>
        </mxCell>
        <mxCell id="eK21wRFp7lSqYpsJswhM-79" value="&lt;font style=&quot;font-size: 9px;&quot;&gt;&amp;lt;&amp;lt;include&amp;gt;&amp;gt;&lt;/font&gt;" style="endArrow=open;endSize=12;dashed=1;html=1;rounded=0;exitX=0.5;exitY=0;exitDx=0;exitDy=0;" edge="1" parent="1" source="eK21wRFp7lSqYpsJswhM-18">
          <mxGeometry width="160" relative="1" as="geometry">
            <mxPoint x="230" y="145" as="sourcePoint" />
            <mxPoint x="571" y="78" as="targetPoint" />
          </mxGeometry>
        </mxCell>
        <mxCell id="eK21wRFp7lSqYpsJswhM-80" value="&lt;font style=&quot;font-size: 9px;&quot;&gt;&amp;lt;&amp;lt;include&amp;gt;&amp;gt;&lt;/font&gt;" style="endArrow=open;endSize=12;dashed=1;html=1;rounded=0;exitX=0.678;exitY=-0.008;exitDx=0;exitDy=0;entryX=0.399;entryY=1.018;entryDx=0;entryDy=0;entryPerimeter=0;exitPerimeter=0;" edge="1" parent="1" source="eK21wRFp7lSqYpsJswhM-18" target="eK21wRFp7lSqYpsJswhM-20">
          <mxGeometry width="160" relative="1" as="geometry">
            <mxPoint x="580" y="399" as="sourcePoint" />
            <mxPoint x="581" y="88" as="targetPoint" />
          </mxGeometry>
        </mxCell>
        <mxCell id="eK21wRFp7lSqYpsJswhM-81" value="&lt;font style=&quot;font-size: 9px;&quot;&gt;&amp;lt;&amp;lt;include&amp;gt;&amp;gt;&lt;/font&gt;" style="endArrow=open;endSize=12;dashed=1;html=1;rounded=0;exitX=1;exitY=0.5;exitDx=0;exitDy=0;entryX=0;entryY=0.5;entryDx=0;entryDy=0;" edge="1" parent="1" source="eK21wRFp7lSqYpsJswhM-17" target="eK21wRFp7lSqYpsJswhM-23">
          <mxGeometry width="160" relative="1" as="geometry">
            <mxPoint x="640" y="54.58000000000001" as="sourcePoint" />
            <mxPoint x="800" y="54.58000000000001" as="targetPoint" />
          </mxGeometry>
        </mxCell>
        <mxCell id="eK21wRFp7lSqYpsJswhM-83" value="&lt;font style=&quot;font-size: 9px;&quot;&gt;&amp;lt;&amp;lt;extends&amp;gt;&amp;gt;&lt;/font&gt;" style="endArrow=open;endSize=12;dashed=1;html=1;rounded=0;exitX=0.279;exitY=0.008;exitDx=0;exitDy=0;exitPerimeter=0;entryX=0.945;entryY=0.838;entryDx=0;entryDy=0;entryPerimeter=0;" edge="1" parent="1" source="eK21wRFp7lSqYpsJswhM-27" target="eK21wRFp7lSqYpsJswhM-28">
          <mxGeometry width="160" relative="1" as="geometry">
            <mxPoint x="820" y="439" as="sourcePoint" />
            <mxPoint x="823" y="305" as="targetPoint" />
          </mxGeometry>
        </mxCell>
        <mxCell id="eK21wRFp7lSqYpsJswhM-84" value="&lt;font style=&quot;font-size: 9px;&quot;&gt;&amp;lt;&amp;lt;include&amp;gt;&amp;gt;&lt;/font&gt;" style="endArrow=open;endSize=12;dashed=1;html=1;rounded=0;exitX=0.739;exitY=0.931;exitDx=0;exitDy=0;exitPerimeter=0;entryX=0.041;entryY=0.787;entryDx=0;entryDy=0;entryPerimeter=0;" edge="1" parent="1" source="eK21wRFp7lSqYpsJswhM-22" target="eK21wRFp7lSqYpsJswhM-30">
          <mxGeometry width="160" relative="1" as="geometry">
            <mxPoint x="890" y="580" as="sourcePoint" />
            <mxPoint x="1050" y="580" as="targetPoint" />
            <Array as="points">
              <mxPoint x="894" y="670" />
            </Array>
          </mxGeometry>
        </mxCell>
        <mxCell id="eK21wRFp7lSqYpsJswhM-85" value="&lt;font style=&quot;font-size: 9px;&quot;&gt;&amp;lt;&amp;lt;include&amp;gt;&amp;gt;&lt;/font&gt;" style="endArrow=open;endSize=12;dashed=1;html=1;rounded=0;exitX=0.364;exitY=0.967;exitDx=0;exitDy=0;exitPerimeter=0;entryX=0.024;entryY=0.669;entryDx=0;entryDy=0;entryPerimeter=0;" edge="1" parent="1" source="eK21wRFp7lSqYpsJswhM-22" target="eK21wRFp7lSqYpsJswhM-24">
          <mxGeometry width="160" relative="1" as="geometry">
            <mxPoint x="850" y="680" as="sourcePoint" />
            <mxPoint x="901" y="714" as="targetPoint" />
            <Array as="points">
              <mxPoint x="850" y="750" />
            </Array>
          </mxGeometry>
        </mxCell>
        <mxCell id="eK21wRFp7lSqYpsJswhM-86" value="&lt;font style=&quot;font-size: 9px;&quot;&gt;&amp;lt;&amp;lt;include&amp;gt;&amp;gt;&lt;/font&gt;" style="endArrow=open;endSize=12;dashed=1;html=1;rounded=0;exitX=0.5;exitY=1;exitDx=0;exitDy=0;entryX=0.5;entryY=0;entryDx=0;entryDy=0;" edge="1" parent="1" source="eK21wRFp7lSqYpsJswhM-26" target="eK21wRFp7lSqYpsJswhM-22">
          <mxGeometry width="160" relative="1" as="geometry">
            <mxPoint x="890" y="530" as="sourcePoint" />
            <mxPoint x="1050" y="530" as="targetPoint" />
          </mxGeometry>
        </mxCell>
        <mxCell id="eK21wRFp7lSqYpsJswhM-87" value="&lt;font style=&quot;font-size: 9px;&quot;&gt;&amp;lt;&amp;lt;include&amp;gt;&amp;gt;&lt;/font&gt;" style="endArrow=open;endSize=12;dashed=1;html=1;rounded=0;exitX=0.982;exitY=0.642;exitDx=0;exitDy=0;exitPerimeter=0;entryX=0.033;entryY=0.737;entryDx=0;entryDy=0;entryPerimeter=0;" edge="1" parent="1" source="eK21wRFp7lSqYpsJswhM-26" target="eK21wRFp7lSqYpsJswhM-25">
          <mxGeometry width="160" relative="1" as="geometry">
            <mxPoint x="890" y="530" as="sourcePoint" />
            <mxPoint x="1050" y="530" as="targetPoint" />
          </mxGeometry>
        </mxCell>
        <mxCell id="eK21wRFp7lSqYpsJswhM-88" value="&amp;lt;&amp;lt;include&amp;gt;&amp;gt;" style="endArrow=open;endSize=12;dashed=1;html=1;rounded=0;exitX=0.1;exitY=0.713;exitDx=0;exitDy=0;exitPerimeter=0;" edge="1" parent="1" source="eK21wRFp7lSqYpsJswhM-28" target="eK21wRFp7lSqYpsJswhM-26">
          <mxGeometry width="160" relative="1" as="geometry">
            <mxPoint x="890" y="480" as="sourcePoint" />
            <mxPoint x="1050" y="480" as="targetPoint" />
          </mxGeometry>
        </mxCell>
        <mxCell id="eK21wRFp7lSqYpsJswhM-89" value="&lt;font style=&quot;font-size: 9px;&quot;&gt;&amp;lt;&amp;lt;include&amp;gt;&amp;gt;&lt;/font&gt;" style="endArrow=open;endSize=12;dashed=1;html=1;rounded=0;exitX=0.386;exitY=0.004;exitDx=0;exitDy=0;exitPerimeter=0;entryX=0.458;entryY=1.003;entryDx=0;entryDy=0;entryPerimeter=0;" edge="1" parent="1" source="eK21wRFp7lSqYpsJswhM-28" target="eK21wRFp7lSqYpsJswhM-21">
          <mxGeometry width="160" relative="1" as="geometry">
            <mxPoint x="890" y="480" as="sourcePoint" />
            <mxPoint x="1050" y="480" as="targetPoint" />
          </mxGeometry>
        </mxCell>
        <mxCell id="eK21wRFp7lSqYpsJswhM-90" value="&lt;font style=&quot;font-size: 9px;&quot;&gt;&amp;lt;&amp;lt;include&amp;gt;&amp;gt;&lt;/font&gt;" style="endArrow=open;endSize=12;dashed=1;html=1;rounded=0;exitX=1;exitY=0;exitDx=0;exitDy=0;entryX=0.297;entryY=0.979;entryDx=0;entryDy=0;entryPerimeter=0;" edge="1" parent="1" source="eK21wRFp7lSqYpsJswhM-28" target="eK21wRFp7lSqYpsJswhM-29">
          <mxGeometry width="160" relative="1" as="geometry">
            <mxPoint x="897" y="340" as="sourcePoint" />
            <mxPoint x="840" y="270" as="targetPoint" />
          </mxGeometry>
        </mxCell>
        <mxCell id="eK21wRFp7lSqYpsJswhM-91" value="&lt;font style=&quot;font-size: 9px;&quot;&gt;&amp;lt;&amp;lt;include&amp;gt;&amp;gt;&lt;/font&gt;" style="endArrow=open;endSize=12;dashed=1;html=1;rounded=0;exitX=0.66;exitY=-0.037;exitDx=0;exitDy=0;exitPerimeter=0;entryX=0.5;entryY=1;entryDx=0;entryDy=0;" edge="1" parent="1" source="eK21wRFp7lSqYpsJswhM-28" target="eK21wRFp7lSqYpsJswhM-23">
          <mxGeometry width="160" relative="1" as="geometry">
            <mxPoint x="897" y="340" as="sourcePoint" />
            <mxPoint x="840" y="270" as="targetPoint" />
          </mxGeometry>
        </mxCell>
        <mxCell id="eK21wRFp7lSqYpsJswhM-92" value="&lt;font style=&quot;font-size: 9px;&quot;&gt;&amp;lt;&amp;lt;include&amp;gt;&amp;gt;&lt;/font&gt;" style="endArrow=open;endSize=12;dashed=1;html=1;rounded=0;exitX=-0.005;exitY=0.353;exitDx=0;exitDy=0;exitPerimeter=0;entryX=0.676;entryY=0.988;entryDx=0;entryDy=0;entryPerimeter=0;" edge="1" parent="1" source="eK21wRFp7lSqYpsJswhM-21" target="eK21wRFp7lSqYpsJswhM-20">
          <mxGeometry width="160" relative="1" as="geometry">
            <mxPoint x="890" y="380" as="sourcePoint" />
            <mxPoint x="1050" y="380" as="targetPoint" />
            <Array as="points">
              <mxPoint x="691" y="228" />
            </Array>
          </mxGeometry>
        </mxCell>
        <mxCell id="eK21wRFp7lSqYpsJswhM-93" value="&lt;font style=&quot;font-size: 9px;&quot;&gt;&amp;lt;&amp;lt;include&amp;gt;&amp;gt;&lt;/font&gt;" style="endArrow=open;endSize=12;dashed=1;html=1;rounded=0;entryX=0.5;entryY=0;entryDx=0;entryDy=0;exitX=0.315;exitY=-0.025;exitDx=0;exitDy=0;exitPerimeter=0;" edge="1" parent="1" source="eK21wRFp7lSqYpsJswhM-26" target="eK21wRFp7lSqYpsJswhM-19">
          <mxGeometry x="0.3765" y="-11" width="160" relative="1" as="geometry">
            <mxPoint x="890" y="550" as="sourcePoint" />
            <mxPoint x="720" y="475" as="targetPoint" />
            <Array as="points">
              <mxPoint x="666" y="453" />
            </Array>
            <mxPoint as="offset" />
          </mxGeometry>
        </mxCell>
        <mxCell id="eK21wRFp7lSqYpsJswhM-94" value="&lt;font style=&quot;font-size: 9px;&quot;&gt;&amp;lt;&amp;lt;include&amp;gt;&amp;gt;&lt;/font&gt;" style="endArrow=open;endSize=12;dashed=1;html=1;rounded=0;exitX=0.5;exitY=1;exitDx=0;exitDy=0;entryX=0.897;entryY=0.753;entryDx=0;entryDy=0;entryPerimeter=0;" edge="1" parent="1" source="eK21wRFp7lSqYpsJswhM-19" target="eK21wRFp7lSqYpsJswhM-39">
          <mxGeometry x="-0.3725" y="-20" width="160" relative="1" as="geometry">
            <mxPoint x="380" y="480" as="sourcePoint" />
            <mxPoint x="540" y="480" as="targetPoint" />
            <Array as="points">
              <mxPoint x="665" y="730" />
              <mxPoint x="280" y="730" />
            </Array>
            <mxPoint as="offset" />
          </mxGeometry>
        </mxCell>
        <mxCell id="eK21wRFp7lSqYpsJswhM-95" value="" style="endArrow=open;endFill=1;endSize=12;html=1;rounded=0;entryX=1;entryY=0.5;entryDx=0;entryDy=0;" edge="1" parent="1" source="eK21wRFp7lSqYpsJswhM-8" target="eK21wRFp7lSqYpsJswhM-28">
          <mxGeometry width="160" relative="1" as="geometry">
            <mxPoint x="1030" y="330" as="sourcePoint" />
            <mxPoint x="1100" y="385" as="targetPoint" />
            <Array as="points">
              <mxPoint x="1030" y="350" />
            </Array>
          </mxGeometry>
        </mxCell>
        <mxCell id="eK21wRFp7lSqYpsJswhM-96" value="&lt;b&gt;Sistema&lt;/b&gt;" style="text;html=1;align=center;verticalAlign=middle;whiteSpace=wrap;rounded=0;" vertex="1" parent="1">
          <mxGeometry x="500" y="770" width="60" height="30" as="geometry" />
        </mxCell>
        <mxCell id="eK21wRFp7lSqYpsJswhM-97" value="&lt;b&gt;Vista Emergenza&lt;/b&gt;" style="text;html=1;align=center;verticalAlign=middle;whiteSpace=wrap;rounded=0;" vertex="1" parent="1">
          <mxGeometry x="70" y="770" width="120" height="30" as="geometry" />
        </mxCell>
        <mxCell id="eK21wRFp7lSqYpsJswhM-98" value="&lt;div&gt;&lt;b&gt;Vista Centrale&lt;br&gt;&lt;/b&gt;&lt;/div&gt;" style="text;html=1;align=center;verticalAlign=middle;whiteSpace=wrap;rounded=0;" vertex="1" parent="1">
          <mxGeometry x="730" y="770" width="150" height="30" as="geometry" />
        </mxCell>
      </root>
    </mxGraphModel>
  </diagram>
</mxfile>
